<svg id="Camada_1" data-name="Camada 1" xmlns="http://www.w3.org/2000/svg" viewBox="0 0 15.31 14.99"><defs><style>.cls-1{fill:#fff;}</style></defs><path class="cls-1" d="M2,1.38H12v2.1c0,1.07,0,2.14,0,3.21A4.9,4.9,0,0,1,7,11.31,4.89,4.89,0,0,1,2,6.9C1.9,5.08,2,3.24,2,1.38Zm1,1.06c0,1.43-.07,2.8,0,4.16a3.88,3.88,0,0,0,3.6,3.63,3.78,3.78,0,0,0,4.1-3,35.9,35.9,0,0,0,0-4.76Z"/><path class="cls-1" d="M2,13.75v-1h9.92v1Z"/><path class="cls-1" d="M14.45,2.32a2.41,2.41,0,0,1-.22.9L13.64,5h-.79l.47-1.86a.81.81,0,0,1-.53-.78.82.82,0,0,1,.84-.85A.81.81,0,0,1,14.45,2.32Z"/></svg>