<svg id="Camada_1" data-name="Camada 1" xmlns="http://www.w3.org/2000/svg" viewBox="0 0 15.31 14.99"><defs><style>.cls-1{fill:#f5a472;}</style></defs><path class="cls-1" d="M3.4,2.46H14.11c.49,0,.64.18.54.64l-1,4.43-.18.8a.46.46,0,0,1-.5.41H4.85c.1.44.19.86.3,1.28,0,0,.13.07.2.07h7.51a1,1,0,0,1,.34,0,.38.38,0,0,1,.23.42.41.41,0,0,1-.36.36H5c-.4,0-.52-.09-.61-.48C3.84,8,3.27,5.55,2.71,3.11c-.11-.48-.22-1-.34-1.46H1.11c-.4,0-.59-.13-.59-.41S.71.82,1.1.82H2.56a.51.51,0,0,1,.58.48C3.22,1.68,3.31,2.06,3.4,2.46ZM4.66,7.9h8.07l1-4.6H3.6Z"/><path class="cls-1" d="M12.92,13a1.5,1.5,0,1,1-1.5-1.52A1.53,1.53,0,0,1,12.92,13Zm-2.17,0a.67.67,0,1,0,.67-.66A.66.66,0,0,0,10.75,13Z"/><path class="cls-1" d="M8,13a1.5,1.5,0,1,1-1.49-1.52A1.52,1.52,0,0,1,8,13Zm-1.5-.68a.69.69,0,0,0-.68.67A.69.69,0,0,0,7.2,13,.69.69,0,0,0,6.51,12.29Z"/></svg>