<svg id="Camada_1" data-name="Camada 1" xmlns="http://www.w3.org/2000/svg" viewBox="0 0 24.41 26.71"><defs><style>.cls-1{fill:#f5a472;}.cls-2{fill:#1d1d1b;}</style></defs><path class="cls-1" d="M12.23,1.87A11.26,11.26,0,1,1,1,13.11,11.26,11.26,0,0,1,12.23,1.87Zm-1.34,12v.43c0,1.35,0,2.7,0,4.05,0,.29.1.4.39.39s.82,0,1.23,0,.47,0,.47-.49v-4c0-.13,0-.25,0-.41h1.5a.36.36,0,0,0,.41-.37c0-.42.1-.84.14-1.26s0-.54-.51-.55H13c0-.54,0-1,0-1.54a.67.67,0,0,1,.62-.73,5.65,5.65,0,0,1,1,0A.34.34,0,0,0,15,9V7.87c0-.26-.14-.38-.4-.37-.45,0-.89,0-1.34,0a2.28,2.28,0,0,0-2.22,1.62,4,4,0,0,0-.17,1c0,.51,0,1,0,1.57H9.77a.36.36,0,0,0-.41.41c0,.46,0,.91,0,1.37a.34.34,0,0,0,.39.38Z"/><path class="cls-2" d="M10.89,13.89H9.75a.34.34,0,0,1-.39-.38c0-.46,0-.91,0-1.37a.36.36,0,0,1,.41-.41h1.11c0-.55,0-1.06,0-1.57a4,4,0,0,1,.17-1A2.28,2.28,0,0,1,13.28,7.5c.45,0,.89,0,1.34,0,.26,0,.4.11.4.37V9a.34.34,0,0,1-.4.38,5.65,5.65,0,0,0-1,0,.67.67,0,0,0-.62.73c0,.5,0,1,0,1.54h1.55c.5,0,.56.08.51.55s-.1.84-.14,1.26a.36.36,0,0,1-.41.37H13c0,.16,0,.28,0,.41v4c0,.46,0,.49-.47.49s-.82,0-1.23,0-.39-.1-.39-.39c0-1.35,0-2.7,0-4.05Z"/></svg>