<svg xmlns="http://www.w3.org/2000/svg" viewBox="0 0 83.71 80.47"><defs><style>.cls-1{isolation:isolate;}.cls-2{fill:#1d1d1b;mix-blend-mode:multiply;opacity:0.1;}.cls-3{fill:#c14d13;}.cls-4{fill:#7f2a00;}</style></defs><g class="cls-1"><g id="Camada_1" data-name="Camada 1"><circle class="cls-2" cx="43.82" cy="40.39" r="36.09"/><circle class="cls-3" cx="40.41" cy="40.99" r="36.09"/><path class="cls-4" d="M22.76,20h33c0,2.34,0,4.66,0,7,0,3.56.13,7.12-.08,10.66A16.29,16.29,0,0,1,39.4,53c-8.4.15-15.9-6.2-16.55-14.67C22.39,32.32,22.76,26.21,22.76,20Zm3.44,3.52c0,4.75-.23,9.3.06,13.82a12.89,12.89,0,0,0,12,12.06c6.49.44,12.76-3.75,13.61-10.07.7-5.14.14-10.45.14-15.81Z"/><path class="cls-4" d="M22.73,61.15V57.92h33v3.23Z"/><path class="cls-4" d="M24.85,22.2H53.34c0,5.93.61,11.79-.16,17.47-1,7-7.87,11.61-15,11.12A14.24,14.24,0,0,1,24.91,37.47C24.59,32.48,24.85,27.45,24.85,22.2Z"/><path class="cls-4" d="M64.08,23.15a8.26,8.26,0,0,1-.71,3l-1.95,5.79H58.79l1.54-6.21a2.64,2.64,0,0,1-1.75-2.58,2.73,2.73,0,0,1,2.79-2.84A2.68,2.68,0,0,1,64.08,23.15Z"/></g></g></svg>