<svg id="Camada_1" data-name="Camada 1" xmlns="http://www.w3.org/2000/svg" viewBox="0 0 25.33 26.94"><defs><style>.cls-1{fill:#f5a472;}.cls-2{fill:#1d1d1b;}</style></defs><path class="cls-1" d="M1.78,12.72A11.26,11.26,0,1,1,12.94,24,11.29,11.29,0,0,1,1.78,12.72Zm4,7.18.36-.09c1.09-.34,2.19-.69,3.29-1a.91.91,0,0,1,.63.05,7.29,7.29,0,0,0,5.84.17,6.94,6.94,0,0,0,4.24-8,7,7,0,0,0-8.28-5.33,6.94,6.94,0,0,0-5.21,9.6,2.44,2.44,0,0,1,0,2.08C6.34,18.16,6.08,19,5.77,19.9Z"/><path class="cls-2" d="M5.77,19.9c.31-.9.57-1.74.9-2.56a2.44,2.44,0,0,0,0-2.08,6.94,6.94,0,0,1,5.21-9.6A7,7,0,0,1,20.13,11a6.94,6.94,0,0,1-4.24,8,7.29,7.29,0,0,1-5.84-.17.91.91,0,0,0-.63-.05c-1.1.32-2.2.67-3.29,1ZM7.6,18.2c.73-.23,1.38-.44,2-.62a.84.84,0,0,1,.52.05,6.07,6.07,0,0,0,5.14.45,5.89,5.89,0,0,0,3.77-6.92,6.1,6.1,0,0,0-7.35-4.4,5.9,5.9,0,0,0-3.57,9,.54.54,0,0,1,.07.56C8,16.91,7.82,17.52,7.6,18.2Z"/><path class="cls-1" d="M7.6,18.2c.22-.68.41-1.29.62-1.9a.54.54,0,0,0-.07-.56,5.9,5.9,0,0,1,3.57-9,6.1,6.1,0,0,1,7.35,4.4,5.89,5.89,0,0,1-3.77,6.92,6.07,6.07,0,0,1-5.14-.45.84.84,0,0,0-.52-.05C9,17.76,8.33,18,7.6,18.2Zm1.78-7.14a4.37,4.37,0,0,0,.19.83,7.08,7.08,0,0,0,5.13,4.26,1.66,1.66,0,0,0,2-1.4c0-.26,0-.43-.29-.53s-.69-.31-1-.47c-.54-.24-.54-.24-.88.21-.1.12-.2.24-.29.37a.34.34,0,0,1-.49.13,5.08,5.08,0,0,1-2-1.54c-.53-.68-.53-.68,0-1.34l.07-.08a.38.38,0,0,0,.08-.51L11.35,9.8a.83.83,0,0,0-1.19-.28A2,2,0,0,0,9.38,11.06Z"/><path class="cls-2" d="M9.38,11.06a2,2,0,0,1,.78-1.54.83.83,0,0,1,1.19.28L11.86,11a.38.38,0,0,1-.08.51l-.07.08c-.56.66-.56.66,0,1.34a5.08,5.08,0,0,0,2,1.54.34.34,0,0,0,.49-.13c.09-.13.19-.25.29-.37.34-.45.34-.45.88-.21.35.16.69.34,1,.47s.32.27.29.53a1.66,1.66,0,0,1-2,1.4,7.08,7.08,0,0,1-5.13-4.26A4.37,4.37,0,0,1,9.38,11.06Z"/></svg>