<svg id="Camada_1" data-name="Camada 1" xmlns="http://www.w3.org/2000/svg" viewBox="0 0 104.02 27.09"><defs><style>.cls-1{fill:#f5a472;}.cls-2{fill:#fff;}</style></defs><path class="cls-1" d="M25.37,13.93c.68.23,1,.65,1,1.7v4a1.26,1.26,0,0,0,1.37,1.44h.46v1.46H27.4a2.46,2.46,0,0,1-2.79-2.73V15.6c0-.65-.31-.93-.83-.93h-.65V13.2h.65c.52,0,.83-.28.83-.93V8A2.46,2.46,0,0,1,27.4,5.29h.81V6.75h-.46a1.26,1.26,0,0,0-1.37,1.44v4C26.38,13.29,26.05,13.71,25.37,13.93Z"/><path class="cls-2" d="M29.8,14.1a4.89,4.89,0,0,1,5.17-5,4.35,4.35,0,0,1,4,2.09l-1.34.87A3.06,3.06,0,0,0,35,10.66a3.25,3.25,0,0,0-3.37,3.44A3.25,3.25,0,0,0,35,17.56a3.06,3.06,0,0,0,2.66-1.41L39,17a4.37,4.37,0,0,1-4,2.11A4.91,4.91,0,0,1,29.8,14.1Z"/><path class="cls-2" d="M40.66,14.1a5.09,5.09,0,0,1,10.18,0,5.09,5.09,0,0,1-10.18,0Zm8.39,0a3.3,3.3,0,1,0-6.6,0,3.3,3.3,0,1,0,6.6,0Z"/><path class="cls-2" d="M55.75,8.36v.85H58.6v1.45H55.79V19H54V10.66H52.35V9.21H54V8.34a2.94,2.94,0,0,1,3.23-3.16,3.25,3.25,0,0,1,2,.57L58.71,7.1a2.28,2.28,0,0,0-1.37-.46C56.29,6.64,55.75,7.23,55.75,8.36Z"/><path class="cls-2" d="M62.74,8.36v.85h2.84v1.45H62.77V19H61V10.66H59.34V9.21H61V8.34a2.94,2.94,0,0,1,3.23-3.16,3.31,3.31,0,0,1,2,.57L65.69,7.1a2.28,2.28,0,0,0-1.37-.46C63.27,6.64,62.74,7.23,62.74,8.36Z"/><path class="cls-2" d="M76.39,14.69h-8A3.32,3.32,0,0,0,72,17.56a3.66,3.66,0,0,0,2.83-1.19l1,1.15a5.33,5.33,0,0,1-9.12-3.42,4.8,4.8,0,0,1,4.91-5,4.72,4.72,0,0,1,4.84,5.05C76.42,14.3,76.4,14.53,76.39,14.69Zm-8-1.27h6.28a3.16,3.16,0,0,0-6.28,0Z"/><path class="cls-2" d="M88.15,14.69H80.21a3.32,3.32,0,0,0,3.55,2.87,3.64,3.64,0,0,0,2.82-1.19l1,1.15a5.33,5.33,0,0,1-9.12-3.42,4.79,4.79,0,0,1,4.91-5,4.72,4.72,0,0,1,4.84,5.05A5.11,5.11,0,0,1,88.15,14.69Zm-7.94-1.27h6.28a3.16,3.16,0,0,0-6.28,0Z"/><path class="cls-1" d="M94.84,13.2v1.47h-.63c-.5,0-.81.28-.81.93v4.25a2.47,2.47,0,0,1-2.81,2.73h-.81V21.12h.44a1.26,1.26,0,0,0,1.4-1.44v-4c0-1.05.32-1.47,1-1.7-.68-.22-1-.64-1-1.7v-4a1.26,1.26,0,0,0-1.4-1.44h-.44V5.29h.81A2.47,2.47,0,0,1,93.4,8v4.25c0,.65.31.93.81.93Z"/><path class="cls-1" d="M97.22,10.37a1.24,1.24,0,0,1,1.26-1.26,1.27,1.27,0,0,1,0,2.53A1.24,1.24,0,0,1,97.22,10.37Zm2.48,7.46a3.76,3.76,0,0,1-.32,1.33l-.87,2.57H97.35L98,19a1.18,1.18,0,0,1-.77-1.15,1.2,1.2,0,0,1,1.24-1.25A1.19,1.19,0,0,1,99.7,17.83Z"/><path class="cls-1" d="M6,8.56H17.3v2.38c0,1.22,0,2.43,0,3.64a5.56,5.56,0,0,1-5.57,5.25,5.55,5.55,0,0,1-5.65-5C5.9,12.76,6,10.67,6,8.56ZM7.2,9.76c0,1.63-.08,3.18,0,4.72A4.4,4.4,0,0,0,11.3,18.6,4.27,4.27,0,0,0,16,15.16,40.4,40.4,0,0,0,16,9.76Z"/><path class="cls-1" d="M6,22.59v-1.1H17.27v1.1Z"/><path class="cls-1" d="M6.73,9.3h9.73a43.76,43.76,0,0,1-.06,6,4.72,4.72,0,0,1-5.13,3.8,4.86,4.86,0,0,1-4.51-4.55C6.65,12.81,6.73,11.09,6.73,9.3Z"/><path class="cls-1" d="M20.12,9.62a2.77,2.77,0,0,1-.24,1l-.67,2h-.89l.52-2.12a.92.92,0,0,1-.59-.89.93.93,0,0,1,.95-1A.91.91,0,0,1,20.12,9.62Z"/></svg>