<?xml version="1.0" encoding="utf-8"?>
<!-- Generator: Adobe Illustrator 26.0.1, SVG Export Plug-In . SVG Version: 6.00 Build 0)  -->
<svg version="1.1" id="Camada_1" xmlns="http://www.w3.org/2000/svg" xmlns:xlink="http://www.w3.org/1999/xlink" x="0px" y="0px"
	 viewBox="0 0 50 34" style="enable-background:new 0 0 50 34;" xml:space="preserve">
<style type="text/css">
	.st0{fill:#FFFFFF;}
	.st1{fill:#EFEFEF;}
	.st2{fill-rule:evenodd;clip-rule:evenodd;fill:#016FD0;}
</style>
<path class="st0" d="M49,29.9c0,1.7-1.4,3.1-3.1,3.1H4.1C2.4,33,1,31.6,1,29.8V4.2C1,2.4,2.4,1,4.1,1h41.8C47.6,1,49,2.4,49,4.2
	V29.9z"/>
<path class="st1" d="M45.9,0H4.1C1.8,0,0,1.9,0,4.2v25.7C0,32.1,1.8,34,4.1,34l0,0h41.8c2.3,0,4.1-1.9,4.1-4.2V4.2
	C50,1.9,48.2,0,45.9,0L45.9,0z M49,29.9c0,1.7-1.4,3.1-3.1,3.1H4.1C2.4,33,1,31.6,1,29.8V4.2C1,2.4,2.4,1,4.1,1h41.8
	C47.6,1,49,2.4,49,4.2V29.9z"/>
<g>
	<path class="st2" d="M5.5,10.1l-2.2,5.1h1.4l0.4-1h2.4l0.4,1h1.5l-2.2-5.1H5.5L5.5,10.1z M6.3,11.2L7,13.1H5.6L6.3,11.2L6.3,11.2z"
		/>
	<polygon class="st2" points="9.5,15.2 9.5,10.1 11.5,10.1 12.7,13.4 13.9,10.1 15.9,10.1 15.9,15.2 14.6,15.2 14.6,11.4 13.3,15.2 
		12.1,15.2 10.8,11.4 10.8,15.2 	"/>
	<polygon class="st2" points="16.8,15.2 16.8,10.1 20.9,10.1 20.9,11.2 18,11.2 18,12.1 20.9,12.1 20.9,13.2 18,13.2 18,14.1 
		20.9,14.1 20.9,15.2 	"/>
	<path class="st2" d="M21.7,10.1v5.1H23v-1.8h0.5l1.5,1.8h1.6l-1.7-1.9c0.7-0.1,1.4-0.6,1.4-1.6c0-1.1-0.8-1.7-1.8-1.7L21.7,10.1
		L21.7,10.1z M22.9,11.2h1.5c0.3,0,0.6,0.3,0.6,0.5c0,0.3-0.3,0.5-0.6,0.5h-1.5V11.2L22.9,11.2L22.9,11.2z"/>
	<polygon class="st2" points="28.1,15.2 26.8,15.2 26.8,10.1 28.1,10.1 	"/>
	<path class="st2" d="M31.2,15.2h-0.3c-1.4,0-2.2-1.1-2.2-2.5c0-1.5,0.8-2.6,2.5-2.6h1.4v1.2h-1.5c-0.7,0-1.2,0.5-1.2,1.4
		c0,1,0.6,1.4,1.4,1.4h0.3L31.2,15.2L31.2,15.2z"/>
	<path class="st2" d="M34,10.1l-2.2,5.1h1.4l0.4-1H36l0.4,1h1.5l-2.3-5.1H34L34,10.1z M34.8,11.2l0.7,1.8H34L34.8,11.2L34.8,11.2z"
		/>
	<polygon class="st2" points="38,15.2 38,10.1 39.6,10.1 41.6,13.2 41.6,10.1 42.9,10.1 42.9,15.2 41.4,15.2 39.2,11.9 39.2,15.2 	
		"/>
	<polygon class="st2" points="12.6,24 12.6,18.9 16.8,18.9 16.8,20.1 13.9,20.1 13.9,20.9 16.7,20.9 16.7,22 13.9,22 13.9,22.9 
		16.8,22.9 16.8,24 	"/>
	<polygon class="st2" points="33,24 33,18.9 37.1,18.9 37.1,20.1 34.3,20.1 34.3,20.9 37.1,20.9 37.1,22 34.3,22 34.3,22.9 
		37.1,22.9 37.1,24 	"/>
	<polygon class="st2" points="16.9,24 18.9,21.5 16.9,18.9 18.5,18.9 19.7,20.5 21,18.9 22.5,18.9 20.5,21.5 22.5,24 20.9,24 
		19.7,22.4 18.5,24 	"/>
	<path class="st2" d="M22.6,18.9V24h1.3v-1.6h1.3c1.1,0,2-0.6,2-1.8c0-1-0.7-1.7-1.8-1.7H22.6L22.6,18.9z M23.9,20.1h1.4
		c0.4,0,0.6,0.2,0.6,0.6c0,0.3-0.3,0.6-0.6,0.6h-1.4V20.1L23.9,20.1L23.9,20.1z"/>
	<path class="st2" d="M27.8,18.9V24h1.3v-1.8h0.5l1.5,1.8h1.6L31,22.1c0.7-0.1,1.4-0.6,1.4-1.6c0-1.1-0.8-1.7-1.8-1.7L27.8,18.9
		L27.8,18.9L27.8,18.9z M29.1,20.1h1.5c0.3,0,0.6,0.3,0.6,0.5c0,0.3-0.3,0.5-0.6,0.5h-1.5V20.1L29.1,20.1z"/>
	<path class="st2" d="M37.7,24v-1.1h2.6c0.4,0,0.5-0.2,0.5-0.4c0-0.2-0.2-0.4-0.5-0.4h-1.2c-1,0-1.6-0.6-1.6-1.5
		c0-0.8,0.5-1.6,2-1.6H42l-0.5,1.1h-2.1c-0.4,0-0.5,0.2-0.5,0.4c0,0.2,0.2,0.4,0.5,0.4h1.2c1.1,0,1.6,0.6,1.6,1.5S41.7,24,40.5,24
		H37.7L37.7,24z"/>
	<path class="st2" d="M42.4,24v-1.1h2.4c0.4,0,0.5-0.2,0.5-0.4c0-0.2-0.2-0.4-0.5-0.4h-1c-1,0-1.6-0.6-1.6-1.5c0-0.8,0.5-1.6,2-1.6
		h2.4l-0.5,1.1H44c-0.4,0-0.5,0.2-0.5,0.4c0,0.2,0.2,0.4,0.5,0.4h1.1c1.1,0,1.6,0.6,1.6,1.5S46.2,24,45,24H42.4L42.4,24z"/>
</g>
</svg>
