<?xml version="1.0" encoding="utf-8"?>
<!-- Generator: Adobe Illustrator 26.0.1, SVG Export Plug-In . SVG Version: 6.00 Build 0)  -->
<svg version="1.1" id="Camada_1" xmlns="http://www.w3.org/2000/svg" xmlns:xlink="http://www.w3.org/1999/xlink" x="0px" y="0px"
	 viewBox="0 0 50 34" style="enable-background:new 0 0 50 34;" xml:space="preserve">
<style type="text/css">
	.st0{fill:#FFFFFF;}
	.st1{fill:#FFCA05;}
	.st2{fill:#00A3DF;}
	.st3{fill:#EE4023;}
	.st4{fill:#231F20;}
	.st5{fill:#EFEFEF;}
</style>
<path class="st0" d="M49.1,29.9c0,1.7-1.4,3.1-3.1,3.1H4.2c-1.7,0-3.1-1.4-3.1-3.2V4.2C1.1,2.4,2.5,1,4.2,1H46
	c1.7,0,3.1,1.4,3.1,3.2V29.9z"/>
<g>
	<g>
		<g>
			<path class="st1" d="M10,12.3c0.5-0.2,1-0.3,1.6-0.3c2.4,0,4.4,1.7,4.9,4l3.4-0.7c-0.8-3.9-4.2-6.7-8.3-6.7
				c-0.9,0-1.8,0.2-2.7,0.4L10,12.3z"/>
			<path class="st2" d="M5.9,23.3l2.3-2.6c-1-0.9-1.7-2.2-1.7-3.7s0.6-2.8,1.7-3.7l-2.3-2.6c-1.7,1.5-2.8,3.8-2.8,6.3
				S4.2,21.8,5.9,23.3"/>
			<path class="st3" d="M16.4,18c-0.5,2.3-2.5,4-4.9,4c-0.6,0-1.1-0.1-1.6-0.3l-1,3.3c0.8,0.3,1.7,0.4,2.7,0.4
				c4.1,0,7.5-2.9,8.3-6.7L16.4,18z"/>
		</g>
	</g>
	<path class="st4" d="M22.8,20.8c-0.1-0.2-0.3-0.5-0.4-0.7c-0.5-1.3-0.6-2.5-0.1-3.8c0.5-1.4,1.5-2.4,2.7-2.9
		c1.6-0.7,3.3-0.5,4.8,0.3c0.9,0.5,1.6,1.4,2.1,2.6c0.1,0.2,0.1,0.3,0.2,0.5L22.8,20.8z M25.9,15.4c-1.1,0.5-1.7,1.5-1.6,2.7l4.7-2
		C28.2,15.2,27.1,14.9,25.9,15.4z M29.6,19.8L29.6,19.8L29.6,19.8c-0.4,0.4-0.8,0.8-1.4,1c-1,0.5-2,0.3-2.7-0.3l-0.1,0.1l0,0
		l-1.2,1.8c0.3,0.2,0.6,0.4,0.9,0.5c1.3,0.5,2.6,0.5,4-0.1c1-0.4,1.7-1,2.2-1.8L29.6,19.8z"/>
	<path class="st4" d="M35.3,10.8v9.9l1.5,0.6l-0.9,2l-1.7-0.7c-0.4-0.2-0.6-0.4-0.8-0.7c-0.2-0.3-0.3-0.7-0.3-1.2v-9.9
		C33.1,10.8,35.3,10.8,35.3,10.8z"/>
	<g>
		<path class="st4" d="M39.3,18.2c0-0.8,0.4-1.6,1-2.1l-1.6-1.8c-1.1,0.9-1.7,2.3-1.7,3.9c0,1.5,0.7,2.9,1.7,3.9l1.6-1.8
			C39.6,19.7,39.3,19,39.3,18.2z"/>
		<path class="st4" d="M42.1,20.9c-0.3,0-0.6-0.1-0.9-0.1L40.4,23c0.5,0.2,1.1,0.3,1.6,0.3c2.5,0,4.6-1.8,5-4.1l-2.3-0.5
			C44.5,20,43.4,21,42.1,20.9z"/>
		<path class="st4" d="M42.1,13c-0.6,0-1.1,0.1-1.6,0.3l0.7,2.2c0.3-0.1,0.6-0.1,0.9-0.1c1.4,0,2.5,1,2.7,2.2l2.3-0.5
			C46.6,14.8,44.6,13,42.1,13z"/>
	</g>
</g>
<path class="st5" d="M46,0H4.2C1.9,0,0.1,1.9,0.1,4.2v25.7c0,2.2,1.8,4.1,4.1,4.1l0,0H46c2.3,0,4.1-1.9,4.1-4.2V4.2
	C50.1,1.9,48.3,0,46,0L46,0z M49.1,29.9c0,1.7-1.4,3.1-3.1,3.1H4.2c-1.7,0-3.1-1.4-3.1-3.2V4.2C1.1,2.4,2.5,1,4.2,1H46
	c1.7,0,3.1,1.4,3.1,3.2V29.9z"/>
</svg>
