<svg xmlns="http://www.w3.org/2000/svg" width="55" height="37" viewBox="0 0 55 37"><defs><style>.a{fill:#fff;stroke:#efefef;}.b{fill:#85868a;}.c{fill:#43ab98;}</style></defs><g transform="translate(-76.757 -1239.5)"><path class="a" d="M4,0H50a4,4,0,0,1,4,4V32a4,4,0,0,1-4,4H4a4,4,0,0,1-4-4V4A4,4,0,0,1,4,0Z" transform="translate(77.257 1240)"/><g transform="translate(83.292 1251.454)"><g transform="translate(16.334 0.161)"><path class="b" d="M122.34,70.778h-1.073a.259.259,0,1,1,0-.519h1.073a1.815,1.815,0,0,0,1.288-.533l2.512-2.464a1.092,1.092,0,0,1,1.543,0l2.5,2.455a1.8,1.8,0,0,0,1.288.533h.874a.26.26,0,1,1,0,.52h-.874a2.331,2.331,0,0,1-1.656-.686l-2.5-2.456a.575.575,0,0,0-.81,0l-2.51,2.466A2.333,2.333,0,0,1,122.34,70.778Z" transform="translate(-108.031 -60.505)"/><g transform="translate(0 2.035)"><path class="b" d="M113.337,75.625a.261.261,0,0,1-.26-.26h0V67.328a3.08,3.08,0,0,1,3.076-3.076h2.5a3.078,3.078,0,0,1,3.067,3.071v2.085a3.08,3.08,0,0,1-3.076,3.076h-3.917a.26.26,0,1,1,0-.52h3.917a2.56,2.56,0,0,0,2.556-2.556V67.323a2.556,2.556,0,0,0-2.548-2.551h-2.5a2.558,2.558,0,0,0-2.554,2.556v8.036A.262.262,0,0,1,113.337,75.625Z" transform="translate(-113.077 -64.252)"/></g><g transform="translate(8.769 2.034)"><path class="b" d="M120.933,72.528a.26.26,0,0,1-.26-.26h0v-6.6a.9.9,0,0,0-.9-.9H118.7a.26.26,0,0,1,0-.52h1.082a1.416,1.416,0,0,1,1.415,1.415v6.6a.26.26,0,0,1-.26.26Z" transform="translate(-118.436 -64.251)"/></g><path class="c" d="M120.674,63.2h0a.656.656,0,0,1,0,.931h0a.659.659,0,0,1-.931,0h0a.659.659,0,0,1,0-.931h0a.659.659,0,0,1,.931,0Z" transform="translate(-108.958 -63.008)"/><path class="b" d="M122.34,64.251h-1.073a.26.26,0,1,0,0,.52h1.073a1.8,1.8,0,0,1,1.288.533l2.512,2.464a1.092,1.092,0,0,0,1.543,0l2.5-2.456a1.811,1.811,0,0,1,1.288-.533h.874a.26.26,0,1,0,0-.52h-.874a2.331,2.331,0,0,0-1.656.686l-2.5,2.453a.573.573,0,0,1-.81,0v0L124,64.933A2.325,2.325,0,0,0,122.34,64.251Z" transform="translate(-108.031 -62.217)"/></g><g transform="translate(0 0)"><g transform="translate(2.774)"><path class="c" d="M105.04,70.4a2.007,2.007,0,0,0,1.425-.589l2.06-2.06a.391.391,0,0,1,.54,0l2.067,2.067a2.005,2.005,0,0,0,1.427.591h.406l-2.608,2.61a2.085,2.085,0,0,1-2.947,0l0,0L104.79,70.4Z" transform="translate(-104.79 -59.898)"/><path class="c" d="M112.56,66.126a2.019,2.019,0,0,0-1.427.591l-2.067,2.068a.385.385,0,0,1-.54,0l-2.062-2.057a2,2,0,0,0-1.425-.591h-.249l2.617-2.617a2.085,2.085,0,0,1,2.947,0l0,0,2.608,2.61Z" transform="translate(-104.789 -62.91)"/></g><path class="c" d="M103.707,66.812l1.558-1.559h.854a1.425,1.425,0,0,1,1,.414l2.06,2.06a.991.991,0,0,0,1.4,0l2.067-2.067a1.411,1.411,0,0,1,1-.414h1.011l1.566,1.566a2.083,2.083,0,0,1,0,2.947l0,0-1.566,1.564H113.64a1.415,1.415,0,0,1-1-.412l-2.068-2.068a1.012,1.012,0,0,0-1.4,0l-2.06,2.06a1.425,1.425,0,0,1-1,.414h-.854l-1.558-1.558a2.083,2.083,0,0,1,0-2.947Z" transform="translate(-103.095 -61.423)"/></g></g></g></svg>