<svg id="Camada_1" data-name="Camada 1" xmlns="http://www.w3.org/2000/svg" viewBox="0 0 26.25 27.4"><defs><style>.cls-1{fill:#f5a472;}.cls-2{fill:#1d1d1b;}</style></defs><path class="cls-1" d="M12.75,24.47A11.31,11.31,0,1,1,24.07,13.2,11.31,11.31,0,0,1,12.75,24.47Zm6.56-11.32h-.12c0-.94,0-1.89,0-2.83a3.49,3.49,0,0,0-3.6-3.59c-1.89,0-3.79,0-5.68,0a3.48,3.48,0,0,0-3.58,3.58c0,1.89,0,3.79,0,5.68a3.47,3.47,0,0,0,3.6,3.59c1.91,0,3.83,0,5.75,0a3.35,3.35,0,0,0,3.42-2.95C19.27,15.49,19.25,14.31,19.31,13.15Z"/><path class="cls-2" d="M19.31,13.15c-.06,1.16,0,2.34-.21,3.48a3.35,3.35,0,0,1-3.42,2.95c-1.92,0-3.84,0-5.75,0A3.47,3.47,0,0,1,6.33,16c0-1.89,0-3.79,0-5.68A3.48,3.48,0,0,1,9.91,6.73c1.89,0,3.79,0,5.68,0a3.49,3.49,0,0,1,3.6,3.59c0,.94,0,1.89,0,2.83Zm-1.2,0c0-1-.05-2.1-.12-3.15a2.17,2.17,0,0,0-2.08-2.08c-2.07,0-4.14-.06-6.21,0A2.13,2.13,0,0,0,7.53,10.1c-.06,2,0,4.09,0,6.13a2.13,2.13,0,0,0,2.15,2.15c2.05.06,4.12.06,6.17,0A2.18,2.18,0,0,0,18,16.25C18.06,15.23,18.07,14.21,18.11,13.16Z"/><path class="cls-1" d="M18.11,13.16c0,1.05-.05,2.07-.12,3.09a2.18,2.18,0,0,1-2.14,2.13c-2,.06-4.12.06-6.17,0a2.13,2.13,0,0,1-2.15-2.15c0-2-.06-4.09,0-6.13A2.13,2.13,0,0,1,9.7,7.93c2.07-.06,4.14,0,6.21,0A2.17,2.17,0,0,1,18,10C18.06,11.06,18.07,12.12,18.11,13.16Zm-8.68,0a3.33,3.33,0,1,0,3.36-3.31A3.33,3.33,0,0,0,9.43,13.14ZM17,9.7a.77.77,0,0,0-.77-.78.78.78,0,0,0-.79.74A.78.78,0,1,0,17,9.7Z"/><path class="cls-2" d="M9.43,13.14a3.33,3.33,0,1,1,3.29,3.35A3.31,3.31,0,0,1,9.43,13.14Zm5.51,0a2.18,2.18,0,0,0-4.36,0,2.18,2.18,0,0,0,4.36,0Z"/><path class="cls-2" d="M17,9.7a.78.78,0,1,1-.77-.78A.77.77,0,0,1,17,9.7Z"/><path class="cls-1" d="M14.94,13.17A2.18,2.18,0,1,1,12.79,11,2.22,2.22,0,0,1,14.94,13.17Z"/></svg>