<svg xmlns="http://www.w3.org/2000/svg" viewBox="0 0 81.94 79.29"><defs><style>.cls-1{isolation:isolate;}.cls-2{fill:#1d1d1b;mix-blend-mode:multiply;opacity:0.1;}.cls-3{fill:#ededed;}.cls-4{fill:#b2b2b2;}</style></defs><g class="cls-1"><g id="Camada_1" data-name="Camada 1"><circle class="cls-2" cx="42.69" cy="38.91" r="36.09"/><circle class="cls-3" cx="39.08" cy="39.51" r="36.09"/><path class="cls-4" d="M22.72,20.39h33c0,2.34,0,4.66,0,7,0,3.55.13,7.11-.08,10.65A16.3,16.3,0,0,1,39.36,53.4c-8.4.15-15.9-6.2-16.55-14.67C22.35,32.68,22.72,26.57,22.72,20.39Zm3.44,3.53c0,4.75-.23,9.3.06,13.82a12.9,12.9,0,0,0,12,12.06c6.49.44,12.76-3.75,13.61-10.07.7-5.14.14-10.45.14-15.81Z"/><path class="cls-4" d="M22.69,61.51V58.28h33v3.23Z"/><path class="cls-4" d="M24.81,22.56H53.3c0,5.93.61,11.79-.16,17.47-.94,7-7.87,11.61-15,11.12A14.25,14.25,0,0,1,24.87,37.83C24.55,32.84,24.81,27.81,24.81,22.56Z"/><path class="cls-4" d="M64,23.51a8.45,8.45,0,0,1-.7,3l-2,5.79H58.75l1.54-6.21a2.64,2.64,0,0,1-1.75-2.58,2.73,2.73,0,0,1,2.79-2.84A2.68,2.68,0,0,1,64,23.51Z"/></g></g></svg>