<svg xmlns="http://www.w3.org/2000/svg" viewBox="0 0 82.23 79.58"><defs><style>.cls-1{isolation:isolate;}.cls-2{fill:#1d1d1b;mix-blend-mode:multiply;opacity:0.1;}.cls-3{fill:#936037;}.cls-4{fill:#432918;}</style></defs><g class="cls-1"><g id="Camada_1" data-name="Camada 1"><circle class="cls-2" cx="42.96" cy="40.09" r="36.09"/><circle class="cls-3" cx="40.06" cy="40.69" r="36.09"/><path class="cls-4" d="M22.81,21.62h33c0,2.34,0,4.66,0,7,0,3.55.13,7.11-.08,10.65A16.3,16.3,0,0,1,39.45,54.63c-8.4.15-15.9-6.2-16.55-14.67C22.44,33.91,22.81,27.8,22.81,21.62Zm3.44,3.53c0,4.75-.23,9.3.06,13.82A12.9,12.9,0,0,0,38.29,51c6.49.44,12.76-3.75,13.61-10.07.7-5.14.14-10.45.14-15.81Z"/><path class="cls-4" d="M22.78,62.74V59.51h33v3.23Z"/><path class="cls-4" d="M24.9,23.79H53.39c0,5.93.61,11.79-.16,17.47-.94,7-7.87,11.61-15,11.12A14.25,14.25,0,0,1,25,39.06C24.64,34.07,24.9,29,24.9,23.79Z"/><path class="cls-4" d="M64.13,24.74a8.45,8.45,0,0,1-.7,3l-2,5.79H58.84l1.54-6.21a2.64,2.64,0,0,1-1.75-2.58,2.73,2.73,0,0,1,2.79-2.84A2.68,2.68,0,0,1,64.13,24.74Z"/></g></g></svg>